<!-- Generated by IcoMoon.io -->
<svg version="1.1" xmlns="http://www.w3.org/2000/svg" width="1448" height="1024" viewBox="0 0 1448 1024">
<title>flower</title>
<g id="icomoon-ignore">
</g>
<path fill="#000" d="M1158.687 440.184c-3.612-2.408-7.225-4.472-11.009-6.365 7.053-11.525 11.009-25.63 10.149-42.487-1.204-23.222-13.933-44.208-35.779-59.001-19.782-13.245-45.412-20.298-67.602-18.578 0.344-1.204 0.688-2.58 1.032-3.784 3.612-18.061-1.032-37.155-13.761-54.873-5.676-7.913-12.729-14.793-20.986-20.47-34.919-23.566-84.803-20.298-112.841-3.612-11.869 6.020-22.362 12.901-32.167 20.298 0-2.58 0-5.16 0-7.741-0.344-22.018-13.417-44.38-34.231-58.485-16.169-11.009-36.811-16.685-59.345-16.341-63.817 1.032-91.856 45.928-91.339 77.578 0 0.172 0 0.344 0 0.516-7.225-4.472-14.621-8.773-22.362-12.385-34.919-19.438-102.176-18.233-133.139 28.038-14.105 21.158-16.169 41.627-11.009 59.001-26.146-1.376-55.561 9.289-75.514 27.522-16.169 14.793-24.942 33.027-25.458 53.152-0.344 18.061 4.472 31.651 11.525 42.143-16.685 9.289-30.963 22.878-38.187 38.359-7.913 16.685-7.913 34.059 0 50.4 5.848 11.869 14.277 21.674 25.114 29.070 8.945 6.020 18.75 9.977 28.726 12.213-12.901 16.685-21.33 38.187-22.706 59.001-1.376 21.674 5.16 41.111 18.75 55.905 4.3 4.644 9.117 8.773 14.105 12.213 26.318 17.717 57.109 13.417 80.331-0.172-8.085 30.274 4.128 76.202 39.391 100.112 7.397 4.988 15.653 8.945 24.426 11.525 41.627 12.385 72.074-3.784 87.383-27.694 0 1.204 0 2.236 0 3.44 0.344 20.642 13.245 41.971 33.715 55.905 17.889 12.041 40.939 18.233 66.741 17.889 68.462-1.032 98.564-45.412 98.048-76.718 0-3.784-0.172-7.397-0.516-11.181 5.504 10.321 13.417 19.61 23.050 26.146 13.417 9.117 36.467 17.545 69.494 6.709 23.050-7.569 41.971-24.254 53.152-46.96 10.149-20.298 13.073-44.036 8.257-63.301 26.318 11.869 60.721 12.901 87.555-18.061 13.073-15.137 19.094-34.575 17.029-56.421-1.892-19.954-10.493-40.423-22.878-56.421 25.63-3.956 50.4-17.717 62.613-44.724 12.901-28.554 1.204-60.377-29.758-81.363zM1165.912 511.226c-13.073 28.898-45.412 33.027-65.193 30.963-5.504-4.472-11.009-8.773-17.029-12.729-45.412-30.791-99.94-43.52-150.512-46.788 57.797-13.073 117.83-11.181 173.046 11.869-56.249-30.619-120.754-37.843-183.367-28.898 57.281-20.814 127.978-34.575 194.376-16.513 0.344 0.172 0.516 0.172 0.86 0.172 8.945 1.892 18.406 5.848 26.662 11.525 8.085 5.16 32.855 24.598 21.158 50.4zM1113.103 662.77c-27.522 31.651-62.441 10.493-69.15 6.020-1.032-0.688-2.064-1.376-2.924-2.236-3.956-4.128-8.257-8.257-12.729-12.557-16.169-31.479-41.971-59.345-77.234-83.255-20.642-13.933-41.799-24.77-61.409-33.027 3.096-2.752 6.020-5.504 8.601-8.429-0.172 1.204-0.344 2.236-0.516 3.44 28.382 2.58 55.561 7.741 82.567 16.857 14.793 5.848 29.586 11.697 43.176 19.954 10.837 6.709 20.986 13.933 30.963 21.846-9.289-9.117-18.578-17.545-28.726-25.458-12.901-10.321-28.21-19.094-43.176-26.146-23.91-11.009-48.164-18.75-73.622-24.598 1.72-2.752 3.268-5.676 4.644-8.601 50.4 0.516 108.197 10.837 156.533 43.52 8.601 5.848 16.857 12.385 24.598 19.266 0.172 0.172 0.344 0.344 0.688 0.516 15.481 12.213 27.178 34.403 29.070 55.045 1.032 14.965-2.58 27.694-11.353 37.843zM926.984 779.912c-7.741-5.332-14.105-13.245-17.373-22.018-10.149-61.065-46.96-136.235-77.922-187.151 23.91 11.009 44.38 27.006 62.957 45.756 19.438 19.782 36.295 42.487 48.508 67.43-9.805-27.866-25.286-53.324-43.52-76.546-14.105-17.889-30.102-33.715-48.508-46.788 4.816-1.892 9.461-3.956 13.933-6.365 23.222 8.773 48.508 20.814 72.074 36.811 43.864 29.758 71.386 65.709 81.707 107.165 0.172 0.344 0.172 0.688 0.344 1.032 4.816 13.933 2.58 33.371-5.504 49.884-5.848 11.869-17.373 27.35-38.703 34.403-18.922 6.365-35.091 5.16-47.992-3.612zM739.661 823.776c-16.685-11.181-22.706-26.318-22.878-35.779-1.032-64.849 29.414-148.448 53.324-204.009 2.58-4.472 4.988-8.601 7.225-12.557 0.516 0 1.032 0.172 1.548 0.172l11.869 176.658 6.537-176.486c1.204 0 2.408-0.172 3.612-0.172 26.146 54.184 63.989 144.32 65.021 214.158 0.344 20.47-22.878 50.916-73.794 51.604-20.642 0.344-38.875-4.3-52.464-13.589zM611.854 789.029c-6.365-1.892-12.385-4.816-17.717-8.429-25.802-17.545-35.951-52.636-29.070-74.654 0-0.344 0.172-0.688 0.172-1.032 17.029-77.578 92.372-125.226 152.749-149.824 3.612 1.892 7.397 3.612 11.353 5.16-19.954 14.277-36.811 31.651-51.432 51.776-17.373 22.878-31.307 49.024-40.079 76.374 11.697-25.802 28.21-49.712 47.82-70.182 18.406-20.126 39.563-36.983 64.161-48.508-29.758 51.948-65.021 129.355-73.45 191.452-5.676 16.513-25.114 39.735-64.505 27.866zM464.61 672.403c-9.117-9.805-13.073-22.534-12.213-37.499 1.376-20.642 12.213-43.176 27.35-55.905 0.172-0.172 0.516-0.344 0.688-0.688 54.356-52.98 128.839-68.118 190.248-68.978 1.204 2.58 2.58 5.16 4.128 7.569-24.77 6.020-48.508 13.933-71.73 24.942-14.277 7.741-28.726 15.309-41.455 25.458-10.149 8.085-19.438 16.513-28.726 25.63 10.665-8.257 21.158-15.825 32.511-22.878 12.729-8.257 27.522-13.589 41.455-19.094 26.662-9.117 53.324-14.277 81.363-17.201 1.72 1.72 3.612 3.44 5.504 5.16-43.52 19.61-102.004 54.7-133.655 111.637-8.085 7.741-15.825 15.481-23.050 23.394-12.557 10.149-39.219 22.534-62.441 6.881-3.612-2.236-6.881-4.988-9.977-8.429zM418.854 493.508c7.397-15.653 26.318-29.93 45.928-34.403 0.172 0 0.516-0.172 0.86-0.172 62.957-19.094 131.247-8.945 188.183 9.117-57.797-3.956-115.938 6.365-166.51 35.951 52.292-23.738 109.745-28.21 165.65-18.406-59.517 2.924-126.774 19.61-180.443 66.569-12.213-0.172-25.974-2.924-37.155-10.321-7.225-4.816-12.901-11.353-16.685-19.438-4.472-9.461-4.472-19.266 0.172-28.898zM447.925 403.029c0.344-13.417 6.193-25.286 17.373-35.435 15.309-13.933 38.875-22.534 58.485-21.158 0.344 0 0.516 0 0.86 0 46.616-0.172 93.060 15.137 138.127 45.756 10.837 7.225 20.814 15.137 30.102 22.878-3.268 2.924-6.365 6.193-9.289 9.461-18.75-9.977-38.187-18.233-58.657-24.77-16.341-4.3-32.511-8.429-49.368-9.805-12.385-1.032-24.426-1.032-36.811-0.688 13.417 1.204 26.318 2.924 39.391 5.504 14.965 2.752 29.242 8.945 43.348 14.277 18.578 8.429 35.607 18.233 52.12 29.414-1.72 2.924-3.096 5.848-4.472 8.773-62.441-20.814-139.331-33.543-210.545-12.041 0 0-0.172 0-0.172 0-7.225-8.601-10.665-19.266-10.493-32.167zM555.778 276.427c22.534-33.543 75.686-34.231 100.972-19.954 0.344 0.172 0.516 0.344 0.86 0.516 8.773 4.128 17.201 8.945 25.114 14.277 41.627 28.21 66.913 70.010 81.707 110.949-6.709 1.204-13.245 2.752-19.438 4.644-14.621-17.029-30.274-32.683-47.992-46.96-13.589-9.805-27.35-19.61-42.487-27.006-11.181-5.332-22.362-9.805-34.059-13.933 12.041 5.848 23.394 12.213 34.747 19.266 12.901 7.913 24.082 18.922 35.263 29.070 14.105 14.277 26.318 29.414 37.499 45.584-5.16 2.236-9.977 4.816-14.621 7.397-11.181-9.805-23.394-19.438-36.811-28.554-40.595-27.522-82.567-43.52-124.882-48.336-6.537-11.009-9.289-26.834 4.128-46.96zM715.407 246.152c-0.344-21.33 20.298-51.776 67.086-52.464 17.717-0.172 32.855 3.784 45.068 12.041 17.029 11.525 23.222 27.866 23.394 38.531 0.172 9.805-0.344 20.298-1.376 30.791-24.254 25.802-40.767 55.561-51.776 84.631l-9.289-98.908-6.365 99.424c-13.417-32.511-34.059-66.569-65.537-93.748-0.688-7.053-1.032-13.761-1.204-20.298zM920.275 252.517c21.158-12.729 61.065-14.793 86.695 2.58 5.848 3.956 10.837 8.773 14.793 14.277 8.773 12.213 12.041 24.254 9.633 35.607-0.86 3.784-2.408 7.569-4.3 11.181-64.161 9.117-118.346 43.692-159.285 81.363-5.504-2.924-11.353-5.504-17.373-7.913 10.665-16.857 22.534-32.855 36.983-46.788 11.009-10.493 22.018-21.33 34.747-29.93 10.665-7.053 21.33-13.245 32.683-19.266-12.041 4.644-23.566 9.805-35.091 15.653-14.621 7.569-29.070 17.889-41.627 28.554-16.513 14.277-31.135 29.758-44.552 46.444-5.332-1.376-10.837-2.408-16.513-3.268 16.341-49.54 47.132-100.456 102.52-128.495 0 0.344 0.344 0.172 0.688 0zM1055.651 338.352c16.685-1.548 37.327 3.956 52.464 14.277 10.837 7.397 23.91 20.126 24.942 39.907 0.688 13.933-3.268 24.426-9.461 32.339 0 0-0.172 0-0.172 0-71.73-19.266-148.104-4.816-210.201 17.889-1.204-2.752-2.58-5.332-4.128-7.913 16.341-11.869 33.371-22.362 51.776-31.307 14.621-6.193 29.414-12.557 44.896-15.997 12.385-2.924 24.598-4.644 37.327-6.193-13.073 0-25.458 0.516-38.531 2.064-16.341 1.892-33.543 6.193-49.024 11.697-19.954 7.225-38.531 15.997-56.765 26.318-3.096-3.44-6.365-6.709-10.149-9.805 42.315-37.843 99.080-71.386 166.166-73.106 0.344 0 0.688 0 0.86-0.172zM894.129 481.467c-6.537-22.362-19.61-39.391-39.907-51.432-17.373-10.149-38.359-15.653-58.657-15.653-24.426 0-48.508 4.644-69.494 17.889-19.782 12.385-32.167 29.93-37.843 52.292 5.332-107.853 197.3-110.433 205.901-3.096zM751.358 567.475c-0.172 0.172-0.344 0.516-0.516 0.688-0.172-0.344-0.344-0.688-0.516-1.032 0.344 0.172 0.688 0.344 1.032 0.344z"></path>
</svg>
