<?xml version="1.0" encoding="utf-8"?>
<!-- Generator: Adobe Illustrator 23.0.0, SVG Export Plug-In . SVG Version: 6.00 Build 0)  -->
<svg version="1.1" id="Capa_1" xmlns="http://www.w3.org/2000/svg" xmlns:xlink="http://www.w3.org/1999/xlink" x="0px" y="0px"
	 viewBox="0 0 841.9 595.3" style="enable-background:new 0 0 841.9 595.3;" xml:space="preserve">
<style type="text/css">
	.st0{fill:#010202;}
</style>
<path class="st0" d="M673.6,255.9c-2.1-1.4-4.2-2.6-6.4-3.7c4.1-6.7,6.4-14.9,5.9-24.7c-0.7-13.5-8.1-25.7-20.8-34.3
	c-11.5-7.7-26.4-11.8-39.3-10.8c0.2-0.7,0.4-1.5,0.6-2.2c2.1-10.5-0.6-21.6-8-31.9c-3.3-4.6-7.4-8.6-12.2-11.9
	c-20.3-13.7-49.3-11.8-65.6-2.1c-6.9,3.5-13,7.5-18.7,11.8c0-1.5,0-3,0-4.5c-0.2-12.8-7.8-25.8-19.9-34c-9.4-6.4-21.4-9.7-34.5-9.5
	c-37.1,0.6-53.4,26.7-53.1,45.1c0,0.1,0,0.2,0,0.3c-4.2-2.6-8.5-5.1-13-7.2c-20.3-11.3-59.4-10.6-77.4,16.3
	c-8.2,12.3-9.4,24.2-6.4,34.3c-15.2-0.8-32.3,5.4-43.9,16c-9.4,8.6-14.5,19.2-14.8,30.9c-0.2,10.5,2.6,18.4,6.7,24.5
	c-9.7,5.4-18,13.3-22.2,22.3c-4.6,9.7-4.6,19.8,0,29.3c3.4,6.9,8.3,12.6,14.6,16.9c5.2,3.5,10.9,5.8,16.7,7.1
	c-7.5,9.7-12.4,22.2-13.2,34.3c-0.8,12.6,3,23.9,10.9,32.5c2.5,2.7,5.3,5.1,8.2,7.1c15.3,10.3,33.2,7.8,46.7-0.1
	c-4.7,17.6,2.4,44.3,22.9,58.2c4.3,2.9,9.1,5.2,14.2,6.7c24.2,7.2,41.9-2.2,50.8-16.1c0,0.7,0,1.3,0,2c0.2,12,7.7,24.4,19.6,32.5
	c10.4,7,23.8,10.6,38.8,10.4c39.8-0.6,57.3-26.4,57-44.6c0-2.2-0.1-4.3-0.3-6.5c3.2,6,7.8,11.4,13.4,15.2
	c7.8,5.3,21.2,10.2,40.4,3.9c13.4-4.4,24.4-14.1,30.9-27.3c5.9-11.8,7.6-25.6,4.8-36.8c15.3,6.9,35.3,7.5,50.9-10.5
	c7.6-8.8,11.1-20.1,9.9-32.8c-1.1-11.6-6.1-23.5-13.3-32.8c14.9-2.3,29.3-10.3,36.4-26C698.4,286.6,691.6,268.1,673.6,255.9z
	 M677.8,297.2c-7.6,16.8-26.4,19.2-37.9,18c-3.2-2.6-6.4-5.1-9.9-7.4c-26.4-17.9-58.1-25.3-87.5-27.2c33.6-7.6,68.5-6.5,100.6,6.9
	c-32.7-17.8-70.2-22-106.6-16.8c33.3-12.1,74.4-20.1,113-9.6c0.2,0.1,0.3,0.1,0.5,0.1c5.2,1.1,10.7,3.4,15.5,6.7
	C670.2,270.9,684.6,282.2,677.8,297.2z M647.1,385.3c-16,18.4-36.3,6.1-40.2,3.5c-0.6-0.4-1.2-0.8-1.7-1.3c-2.3-2.4-4.8-4.8-7.4-7.3
	c-9.4-18.3-24.4-34.5-44.9-48.4c-12-8.1-24.3-14.4-35.7-19.2c1.8-1.6,3.5-3.2,5-4.9c-0.1,0.7-0.2,1.3-0.3,2
	c16.5,1.5,32.3,4.5,48,9.8c8.6,3.4,17.2,6.8,25.1,11.6c6.3,3.9,12.2,8.1,18,12.7c-5.4-5.3-10.8-10.2-16.7-14.8
	c-7.5-6-16.4-11.1-25.1-15.2c-13.9-6.4-28-10.9-42.8-14.3c1-1.6,1.9-3.3,2.7-5c29.3,0.3,62.9,6.3,91,25.3c5,3.4,9.8,7.2,14.3,11.2
	c0.1,0.1,0.2,0.2,0.4,0.3c9,7.1,15.8,20,16.9,32C654.3,372,652.2,379.4,647.1,385.3z M538.9,453.4c-4.5-3.1-8.2-7.7-10.1-12.8
	c-5.9-35.5-27.3-79.2-45.3-108.8c13.9,6.4,25.8,15.7,36.6,26.6c11.3,11.5,21.1,24.7,28.2,39.2c-5.7-16.2-14.7-31-25.3-44.5
	c-8.2-10.4-17.5-19.6-28.2-27.2c2.8-1.1,5.5-2.3,8.1-3.7c13.5,5.1,28.2,12.1,41.9,21.4c25.5,17.3,41.5,38.2,47.5,62.3
	c0.1,0.2,0.1,0.4,0.2,0.6c2.8,8.1,1.5,19.4-3.2,29c-3.4,6.9-10.1,15.9-22.5,20C555.8,459.2,546.4,458.5,538.9,453.4z M430,478.9
	c-9.7-6.5-13.2-15.3-13.3-20.8c-0.6-37.7,17.1-86.3,31-118.6c1.5-2.6,2.9-5,4.2-7.3c0.3,0,0.6,0.1,0.9,0.1l6.9,102.7l3.8-102.6
	c0.7,0,1.4-0.1,2.1-0.1c15.2,31.5,37.2,83.9,37.8,124.5c0.2,11.9-13.3,29.6-42.9,30C448.5,487,437.9,484.3,430,478.9z M355.7,458.7
	c-3.7-1.1-7.2-2.8-10.3-4.9c-15-10.2-20.9-30.6-16.9-43.4c0-0.2,0.1-0.4,0.1-0.6c9.9-45.1,53.7-72.8,88.8-87.1
	c2.1,1.1,4.3,2.1,6.6,3c-11.6,8.3-21.4,18.4-29.9,30.1c-10.1,13.3-18.2,28.5-23.3,44.4c6.8-15,16.4-28.9,27.8-40.8
	c10.7-11.7,23-21.5,37.3-28.2c-17.3,30.2-37.8,75.2-42.7,111.3C389.9,452.1,378.6,465.6,355.7,458.7z M270.1,390.9
	c-5.3-5.7-7.6-13.1-7.1-21.8c0.8-12,7.1-25.1,15.9-32.5c0.1-0.1,0.3-0.2,0.4-0.4c31.6-30.8,74.9-39.6,110.6-40.1
	c0.7,1.5,1.5,3,2.4,4.4c-14.4,3.5-28.2,8.1-41.7,14.5c-8.3,4.5-16.7,8.9-24.1,14.8c-5.9,4.7-11.3,9.6-16.7,14.9
	c6.2-4.8,12.3-9.2,18.9-13.3c7.4-4.8,16-7.9,24.1-11.1c15.5-5.3,31-8.3,47.3-10c1,1,2.1,2,3.2,3c-25.3,11.4-59.3,31.8-77.7,64.9
	c-4.7,4.5-9.2,9-13.4,13.6c-7.3,5.9-22.8,13.1-36.3,4C273.8,394.5,271.9,392.9,270.1,390.9z M243.5,286.9c4.3-9.1,15.3-17.4,26.7-20
	c0.1,0,0.3-0.1,0.5-0.1c36.6-11.1,76.3-5.2,109.4,5.3c-33.6-2.3-67.4,3.7-96.8,20.9c30.4-13.8,63.8-16.4,96.3-10.7
	C345,284,305.9,293.7,274.7,321c-7.1-0.1-15.1-1.7-21.6-6c-4.2-2.8-7.5-6.6-9.7-11.3C240.8,298.2,240.8,292.5,243.5,286.9z
	 M260.4,234.3c0.2-7.8,3.6-14.7,10.1-20.6c8.9-8.1,22.6-13.1,34-12.3c0.2,0,0.3,0,0.5,0c27.1-0.1,54.1,8.8,80.3,26.6
	c6.3,4.2,12.1,8.8,17.5,13.3c-1.9,1.7-3.7,3.6-5.4,5.5c-10.9-5.8-22.2-10.6-34.1-14.4c-9.5-2.5-18.9-4.9-28.7-5.7
	c-7.2-0.6-14.2-0.6-21.4-0.4c7.8,0.7,15.3,1.7,22.9,3.2c8.7,1.6,17,5.2,25.2,8.3c10.8,4.9,20.7,10.6,30.3,17.1
	c-1,1.7-1.8,3.4-2.6,5.1c-36.3-12.1-81-19.5-122.4-7c0,0-0.1,0-0.1,0C262.3,248,260.3,241.8,260.4,234.3z M323.1,160.7
	c13.1-19.5,44-19.9,58.7-11.6c0.2,0.1,0.3,0.2,0.5,0.3c5.1,2.4,10,5.2,14.6,8.3c24.2,16.4,38.9,40.7,47.5,64.5
	c-3.9,0.7-7.7,1.6-11.3,2.7c-8.5-9.9-17.6-19-27.9-27.3c-7.9-5.7-15.9-11.4-24.7-15.7c-6.5-3.1-13-5.7-19.8-8.1
	c7,3.4,13.6,7.1,20.2,11.2c7.5,4.6,14,11,20.5,16.9c8.2,8.3,15.3,17.1,21.8,26.5c-3,1.3-5.8,2.8-8.5,4.3
	c-6.5-5.7-13.6-11.3-21.4-16.6c-23.6-16-48-25.3-72.6-28.1C316.9,181.6,315.3,172.4,323.1,160.7z M415.9,143.1
	c-0.2-12.4,11.8-30.1,39-30.5c10.3-0.1,19.1,2.2,26.2,7c9.9,6.7,13.5,16.2,13.6,22.4c0.1,5.7-0.2,11.8-0.8,17.9
	c-14.1,15-23.7,32.3-30.1,49.2l-5.4-57.5l-3.7,57.8c-7.8-18.9-19.8-38.7-38.1-54.5C416.2,150.8,416,146.9,415.9,143.1z M535,146.8
	c12.3-7.4,35.5-8.6,50.4,1.5c3.4,2.3,6.3,5.1,8.6,8.3c5.1,7.1,7,14.1,5.6,20.7c-0.5,2.2-1.4,4.4-2.5,6.5
	c-37.3,5.3-68.8,25.4-92.6,47.3c-3.2-1.7-6.6-3.2-10.1-4.6c6.2-9.8,13.1-19.1,21.5-27.2c6.4-6.1,12.8-12.4,20.2-17.4
	c6.2-4.1,12.4-7.7,19-11.2c-7,2.7-13.7,5.7-20.4,9.1c-8.5,4.4-16.9,10.4-24.2,16.6c-9.6,8.3-18.1,17.3-25.9,27
	c-3.1-0.8-6.3-1.4-9.6-1.9c9.5-28.8,27.4-58.4,59.6-74.7C534.6,147,534.8,146.9,535,146.8z M613.7,196.7c9.7-0.9,21.7,2.3,30.5,8.3
	c6.3,4.3,13.9,11.7,14.5,23.2c0.4,8.1-1.9,14.2-5.5,18.8c0,0-0.1,0-0.1,0c-41.7-11.2-86.1-2.8-122.2,10.4c-0.7-1.6-1.5-3.1-2.4-4.6
	c9.5-6.9,19.4-13,30.1-18.2c8.5-3.6,17.1-7.3,26.1-9.3c7.2-1.7,14.3-2.7,21.7-3.6c-7.6,0-14.8,0.3-22.4,1.2
	c-9.5,1.1-19.5,3.6-28.5,6.8c-11.6,4.2-22.4,9.3-33,15.3c-1.8-2-3.7-3.9-5.9-5.7c24.6-22,57.6-41.5,96.6-42.5
	C613.4,196.8,613.6,196.8,613.7,196.7z M519.8,279.9c-3.8-13-11.4-22.9-23.2-29.9c-10.1-5.9-22.3-9.1-34.1-9.1
	c-14.2,0-28.2,2.7-40.4,10.4c-11.5,7.2-18.7,17.4-22,30.4C403.2,219,514.8,217.5,519.8,279.9z M436.8,329.9
	c-0.1,0.1-0.2,0.3-0.3,0.4c-0.1-0.2-0.2-0.4-0.3-0.6C436.4,329.8,436.6,329.9,436.8,329.9z"/>
</svg>
